<svg width="40" height="40" viewBox="0 0 40 40" fill="none" xmlns="http://www.w3.org/2000/svg">
<g clip-path="url(#clip0_201_2)">
<path d="M6.48334 26.12L10.425 0.768308C10.4533 0.580254 10.5402 0.405919 10.6733 0.27014C10.8065 0.13436 10.9791 0.0440625 11.1665 0.0121107C11.354 -0.0198412 11.5468 0.00818299 11.7174 0.0921906C11.888 0.176198 12.0277 0.311904 12.1167 0.479974L16.355 8.43164L6.48334 26.12ZM34.4733 32.2733L30.7233 8.93997C30.6976 8.77508 30.6266 8.62058 30.5181 8.49373C30.4097 8.36689 30.2681 8.27271 30.1092 8.2217C29.9503 8.17069 29.7803 8.16487 29.6183 8.20489C29.4563 8.2449 29.3086 8.32918 29.1917 8.44831L5.52667 32.275L18.62 39.6533C19.0241 39.8803 19.4798 39.9996 19.9433 39.9996C20.4069 39.9996 20.8626 39.8803 21.2667 39.6533L34.4733 32.2733ZM23.8333 11.9116L20.8 6.10831C20.7235 5.96237 20.6085 5.84014 20.4675 5.75487C20.3264 5.66959 20.1648 5.62451 20 5.62451C19.8352 5.62451 19.6736 5.66959 19.5325 5.75487C19.3915 5.84014 19.2765 5.96237 19.2 6.10831L5.88334 29.9733L23.8333 11.9116Z" fill="#FFCA28"/>
</g>
<defs>
<clipPath id="clip0_201_2">
<rect width="40" height="40" fill="white"/>
</clipPath>
</defs>
</svg>
